Coordinates
version=1
nRows=17
nColumns=36
inDegrees=yes

Units are S.I. units (second, meters, Newtons, ...)
If the header above contains a line with 'inDegrees', this indicates whether rotational values are in degrees (yes) or radians (no).

endheader
time	pelvis_tilt	pelvis_list	pelvis_rotation	pelvis_tx	pelvis_ty	pelvis_tz	hip_flexion_r	hip_adduction_r	hip_rotation_r	knee_angle_r	knee_angle_r_beta	ankle_angle_r	subtalar_angle_r	mtp_angle_r	hip_flexion_l	hip_adduction_l	hip_rotation_l	knee_angle_l	knee_angle_l_beta	ankle_angle_l	subtalar_angle_l	mtp_angle_l	lumbar_extension	lumbar_bending	lumbar_rotation	arm_flex_r	arm_add_r	arm_rot_r	elbow_flex_r	pro_sup_r	arm_flex_l	arm_add_l	arm_rot_l	elbow_flex_l	pro_sup_l
      3.41666670	    -20.86794457	     -0.29961369	      3.26534096	     -1.09919903	      1.05489536	     -0.06711607	     67.42930437	     -1.09448261	     -0.27651395	     85.18849790	      1.48681977	     31.86316004	    -21.61675825	     -7.49999987	     68.22270969	     -1.15864520	      1.47060501	     86.60242560	      1.51149747	     33.46009372	     -5.79207745	     -7.49999987	    -62.90831442	      1.40433874	      3.08970347	      1.86409120	     -4.65727116	   -158.17990975	     24.93821247	      6.92814251	    -12.87212718	     -8.16950715	    -36.79079914	      9.09710229	     26.69154494
      3.42083330	    -20.91518177	     -0.29186129	      3.37695871	     -1.09626037	      1.05067978	     -0.06634100	     67.53142526	     -1.15909306	     -0.22062720	     85.63171444	      1.49455536	     32.09310610	    -21.88217116	     -7.49999987	     68.40485013	     -1.01374498	      1.67102794	     86.93719595	      1.51734031	     33.79201754	     -5.68775917	     -7.49999987	    -63.22105986	      1.20650694	      3.26625558	      2.86156379	     -4.77096908	   -157.06983248	     24.68010632	      6.96635376	    -11.60237447	     -8.29188178	    -36.68459269	      9.03661961	     25.73967930
      3.42500000	    -21.01724868	     -0.20977377	      3.51924402	     -1.09726532	      1.05081346	     -0.06517807	     67.71577243	     -1.15879596	     -0.12539910	     85.95319593	      1.50016627	     32.02229987	    -22.28762533	     -7.49999987	     68.63685617	     -0.86712608	      1.77604478	     87.20014290	      1.52192960	     33.88966842	     -5.67156549	     -7.49999987	    -63.80245362	      0.97739215	      3.17692967	      4.14886401	     -4.82474816	   -155.36049353	     24.36508348	      7.14234452	    -10.33336349	     -8.51939019	    -36.62101303	      9.03833565	     26.37965024
      3.42916670	    -21.23090198	     -0.20619829	      3.61964679	     -1.09552876	      1.04735373	     -0.06435543	     68.00926952	     -1.03471699	     -0.07355604	     86.32333647	      1.50662644	     32.33100571	    -22.61407230	     -7.49999987	     68.98148307	     -0.79339691	      1.87687879	     87.40760292	      1.52555046	     34.37538583	     -5.33142277	     -7.49999987	    -63.93030599	      0.86039463	      3.35728011	      4.92451427	     -4.74475953	   -151.76094674	     23.55992632	      6.74326272	     -9.05798967	     -8.73058830	    -36.08272866	      9.26944128	     23.99255555
      3.43333330	    -21.50515830	     -0.14758939	      3.73272081	     -1.09321534	      1.04599318	     -0.06479173	     68.28348185	     -0.97478696	      0.03794206	     86.56872210	      1.51090923	     32.68083657	    -22.57272264	     -7.49999987	     69.42293234	     -0.67927845	      1.86409818	     87.85807128	      1.53341262	     34.85653884	     -4.86307368	     -7.49999987	    -64.16764748	      0.78011021	      3.43894018	      6.07394314	     -4.79959869	   -150.18296823	     23.15764260	      7.19737052	     -7.63766794	     -8.87559238	    -36.13525513	      9.34587300	     24.34941518
      3.43750000	    -21.63451794	     -0.13034271	      3.74816353	     -1.08931931	      1.04275388	     -0.06541703	     68.39988787	     -0.86400865	      0.19651083	     86.95667069	      1.51768021	     32.96348591	    -22.67744740	     -7.49999987	     69.51355137	     -0.55853408	      1.88656419	     88.15337118	      1.53856657	     35.09044893	     -4.94752752	     -7.49999987	    -64.20464558	      0.81984389	      3.48719454	      7.38227557	     -5.22104694	   -149.97763689	     22.96184644	      7.40232280	     -6.50540921	     -8.85190731	    -36.08318142	      9.78892970	     24.41915277
      3.44166670	    -21.53785002	     -0.00935077	      3.77167368	     -1.08289759	      1.04080759	     -0.06645410	     67.95833298	     -0.86866675	      0.40350370	     87.27827231	      1.52329322	     33.77565487	    -22.61791806	     -7.49999987	     69.03033025	     -0.49167522	      1.72433119	     88.52151509	      1.54499190	     35.67744052	     -4.95373718	     -7.49999987	    -64.65475409	      0.79447499	      3.52598224	      7.99368865	     -4.67869238	   -142.03807966	     22.17517206	      7.64900201	     -4.96909621	     -8.89378648	    -36.36055013	      9.46531918	     23.98029727
      3.44583330	    -21.21578911	      0.09411207	      3.68718106	     -1.08170534	      1.04114857	     -0.06659380	     67.47308748	     -0.78768796	      0.59453238	     87.48039546	      1.52682093	     33.95042655	    -22.88466714	     -7.49999987	     68.37968368	     -0.47536565	      1.58237562	     88.64705556	      1.54718299	     36.12660602	     -4.76980599	     -7.49999987	    -65.23396650	      0.71539531	      3.10672342	      9.48844150	     -4.66083246	   -139.76264619	     22.18183173	      9.12090276	     -3.84344444	     -8.92496489	    -36.73707300	      9.48173046	     26.61585709
      3.45000000	    -20.98684020	      0.16201838	      3.48929266	     -1.07906855	      1.04194013	     -0.06742863	     67.03713971	     -0.73551413	      0.66691920	     87.61294719	      1.52913440	     34.24252919	    -22.69853146	     -7.49999987	     67.77747894	     -0.43303069	      1.55994398	     88.63510321	      1.54697438	     36.49053740	     -4.51977987	     -7.49999987	    -65.76542679	      0.62810462	      3.28640301	     10.59361530	     -4.86464018	   -136.67498903	     21.47699541	      9.38512701	     -2.26466828	     -8.85223752	    -36.80737069	      9.63537284	     27.89638726
      3.45416670	    -20.81077649	      0.28605936	      3.30544538	     -1.07819579	      1.04048274	     -0.06620385	     66.77925759	     -0.64670029	      0.81959107	     87.78678957	      1.53216852	     34.59514313	    -22.51206612	     -7.49999987	     67.30591661	     -0.46205542	      1.37356024	     88.85799879	      1.55086465	     36.92080848	     -4.39349217	     -7.49999987	    -66.32512494	      0.52898097	      3.00336547	     12.11420462	     -4.86791296	   -134.00022233	     21.23114151	     10.40271038	     -1.00432169	     -8.84526045	    -36.83520000	      9.93604223	     29.04352532
      3.45833330	    -20.63998103	      0.38559766	      3.03821722	     -1.07372707	      1.03935751	     -0.06616760	     66.46596730	     -0.43829482	      0.95348583	     87.94826869	      1.53498686	     35.14777724	    -22.24178787	     -7.49999987	     66.90882124	     -0.59245141	      1.19633087	     89.05288207	      1.55426600	     37.31164362	     -4.18347071	     -7.49999987	    -66.94578250	      0.36543593	      2.90864374	     11.85038629	     -3.74746549	   -114.40974035	     20.75601514	      9.11668580	      0.33126181	     -8.69601098	    -37.70854101	     10.94856481	     27.06763142
      3.46250000	    -20.44029178	      0.37656213	      2.96432535	     -1.07257085	      1.04184186	     -0.06630850	     65.80147200	     -0.30462441	      1.02545156	     87.76110125	      1.53172017	     35.34278623	    -22.42400458	     -7.49999987	     66.38734278	     -0.64712781	      1.17262371	     88.91249752	      1.55181583	     37.69567791	     -3.83259164	     -7.49999987	    -67.79717378	      0.14805319	      2.85159701	     13.45104280	     -3.75406409	   -111.94771403	     20.49579185	      9.36577333	      1.97458007	     -8.85278343	    -37.36175383	     11.11189595	     28.48351227
      3.46666670	    -19.86064912	      0.42888034	      2.76785469	     -1.06827535	      1.04035691	     -0.06861378	     65.03501121	     -0.25424956	      1.16983331	     87.97774043	      1.53550124	     35.72590115	    -22.44648243	     -7.49999987	     65.48796684	     -0.69124860	      1.05836350	     89.15165324	      1.55598988	     37.99082297	     -4.22215976	     -7.49999987	    -68.79411031	      0.02102605	      2.96765897	     14.96812539	     -4.20903422	   -110.31953573	     19.97468926	      9.59620155	      3.50643626	     -8.79096358	    -37.11534547	     11.63815064	     28.52646439
      3.47083330	    -19.93183776	      0.48446997	      2.84213263	     -1.06780732	      1.03959902	     -0.06944462	     64.91587293	     -0.39048733	      1.35176395	     88.13685378	      1.53827829	     35.79811379	    -22.69832559	     -7.49999987	     65.37389606	     -0.47744995	      0.99272837	     89.33622044	      1.55921119	     38.25078697	     -4.44813279	     -7.49999987	    -69.51420235	      0.02818400	      2.82094338	     13.71948046	     -3.75264539	    -82.93807456	     19.18941396	     12.52217985	      5.03942135	     -8.97768440	    -34.45103007	     11.90483283	     29.02333448
      3.47500000	    -19.53147475	      0.49747384	      2.68670827	     -1.06220466	      1.03786942	     -0.06976921	     64.21394313	     -0.39273286	      1.46620548	     88.31452248	      1.54137919	     36.19836749	    -22.67028292	     -7.49999987	     64.59442425	     -0.51240295	      1.03009917	     89.48089167	      1.56173618	     38.34293803	     -4.92551587	     -7.49999987	    -70.17356217	     -0.11588395	      2.87880969	     13.89343080	     -4.08164179	    -69.70037673	     18.68169677	     17.04583027	      6.59728596	     -9.04419681	    -33.00201775	     12.01148319	     28.46462209
      3.47916670	    -19.77809164	      0.64166926	      2.51893221	     -1.06427002	      1.03734198	     -0.06974596	     64.58800472	     -0.39460423	      1.66935516	     88.56351999	      1.54572502	     36.13425142	    -23.03128029	     -7.49999987	     64.87408560	     -0.38227920	      0.92118166	     89.85524034	      1.56826979	     38.71016502	     -5.17036132	     -7.49999987	    -70.56438473	     -0.43172924	      2.89173733	     13.96539184	     -5.00706213	    -62.60873091	     15.84999079	     94.25476704	      8.22061904	     -9.18754808	    -29.99548255	     12.52526861	     25.64714762
      3.48333330	    -19.83099564	      0.80143585	      2.23108992	     -1.06496037	      1.03439858	     -0.07039505	     65.09967520	     -0.35125763	      1.91620262	     89.21938702	      1.55717206	     36.21034676	    -23.25322355	     -7.49999987	     65.02912814	     -0.30559248	      0.82625932	     90.15112600	      1.57343397	     39.01288657	     -5.30185905	     -7.49999987	    -70.49498069	     -0.73307283	      2.73062216	     15.25119238	     -4.93752485	    -60.70982733	     16.45789372	     90.29167496	      9.62926536	     -9.14220853	    -30.48168341	     12.79065959	     29.50761408
